<mxfile host="app.diagrams.net" agent="Mozilla/5.0 (Windows NT 10.0; Win64; x64) AppleWebKit/537.36 (KHTML, like Gecko) Chrome/133.0.0.0 Safari/537.36" version="26.0.16" pages="3">
  <diagram name="Interface OpcUa" id="3O1yarx61FH_KQ-hQABA">
    <mxGraphModel dx="1434" dy="901" grid="1" gridSize="10" guides="1" tooltips="1" connect="1" arrows="1" fold="1" page="1" pageScale="1" pageWidth="1654" pageHeight="1169" math="0" shadow="0">
      <root>
        <mxCell id="0" />
        <mxCell id="1" parent="0" />
        <mxCell id="ovOquduBLZXhEfotEcZJ-17" style="edgeStyle=orthogonalEdgeStyle;rounded=0;orthogonalLoop=1;jettySize=auto;html=1;exitX=1;exitY=0.25;exitDx=0;exitDy=0;entryX=0;entryY=0.25;entryDx=0;entryDy=0;" parent="1" edge="1">
          <mxGeometry relative="1" as="geometry">
            <mxPoint x="640" y="260" as="sourcePoint" />
            <mxPoint x="720" y="260" as="targetPoint" />
          </mxGeometry>
        </mxCell>
        <mxCell id="ovOquduBLZXhEfotEcZJ-21" value="Var2" style="edgeLabel;html=1;align=center;verticalAlign=middle;resizable=0;points=[];" parent="ovOquduBLZXhEfotEcZJ-17" vertex="1" connectable="0">
          <mxGeometry x="-0.0833" y="1" relative="1" as="geometry">
            <mxPoint as="offset" />
          </mxGeometry>
        </mxCell>
        <mxCell id="ovOquduBLZXhEfotEcZJ-1" value="Interface" style="rounded=1;whiteSpace=wrap;html=1;verticalAlign=top;" parent="1" vertex="1">
          <mxGeometry x="440" y="160" width="200" height="360" as="geometry" />
        </mxCell>
        <mxCell id="ovOquduBLZXhEfotEcZJ-5" style="edgeStyle=orthogonalEdgeStyle;rounded=0;orthogonalLoop=1;jettySize=auto;html=1;exitX=1;exitY=0.5;exitDx=0;exitDy=0;entryX=0.002;entryY=0.181;entryDx=0;entryDy=0;entryPerimeter=0;" parent="1" source="ovOquduBLZXhEfotEcZJ-3" target="ovOquduBLZXhEfotEcZJ-1" edge="1">
          <mxGeometry relative="1" as="geometry">
            <mxPoint x="420" y="260" as="targetPoint" />
          </mxGeometry>
        </mxCell>
        <mxCell id="ovOquduBLZXhEfotEcZJ-3" value="MethodOpcUa1" style="rounded=1;whiteSpace=wrap;html=1;" parent="1" vertex="1">
          <mxGeometry x="210" y="210" width="180" height="30" as="geometry" />
        </mxCell>
        <mxCell id="ovOquduBLZXhEfotEcZJ-6" value="Process" style="rounded=1;whiteSpace=wrap;html=1;verticalAlign=top;" parent="1" vertex="1">
          <mxGeometry x="720" y="160" width="200" height="360" as="geometry" />
        </mxCell>
        <mxCell id="ovOquduBLZXhEfotEcZJ-8" style="edgeStyle=orthogonalEdgeStyle;rounded=0;orthogonalLoop=1;jettySize=auto;html=1;exitX=1.003;exitY=0.18;exitDx=0;exitDy=0;entryX=0;entryY=0.181;entryDx=0;entryDy=0;entryPerimeter=0;exitPerimeter=0;" parent="1" source="ovOquduBLZXhEfotEcZJ-1" target="ovOquduBLZXhEfotEcZJ-6" edge="1">
          <mxGeometry relative="1" as="geometry">
            <mxPoint x="614.9999999999998" y="224.9999999999999" as="sourcePoint" />
            <mxPoint x="690" y="260" as="targetPoint" />
          </mxGeometry>
        </mxCell>
        <mxCell id="ovOquduBLZXhEfotEcZJ-22" value="Var1" style="edgeLabel;html=1;align=center;verticalAlign=middle;resizable=0;points=[];" parent="ovOquduBLZXhEfotEcZJ-8" vertex="1" connectable="0">
          <mxGeometry x="0.1982" y="2" relative="1" as="geometry">
            <mxPoint as="offset" />
          </mxGeometry>
        </mxCell>
        <mxCell id="ovOquduBLZXhEfotEcZJ-9" style="edgeStyle=orthogonalEdgeStyle;rounded=0;orthogonalLoop=1;jettySize=auto;html=1;exitX=1;exitY=0.5;exitDx=0;exitDy=0;entryX=0.002;entryY=0.181;entryDx=0;entryDy=0;entryPerimeter=0;" parent="1" source="ovOquduBLZXhEfotEcZJ-10" edge="1">
          <mxGeometry relative="1" as="geometry">
            <mxPoint x="440" y="285" as="targetPoint" />
          </mxGeometry>
        </mxCell>
        <mxCell id="ovOquduBLZXhEfotEcZJ-10" value="MethodOpcUa2" style="rounded=1;whiteSpace=wrap;html=1;" parent="1" vertex="1">
          <mxGeometry x="210" y="270" width="180" height="30" as="geometry" />
        </mxCell>
        <mxCell id="ovOquduBLZXhEfotEcZJ-11" style="edgeStyle=orthogonalEdgeStyle;rounded=0;orthogonalLoop=1;jettySize=auto;html=1;exitX=1;exitY=0.5;exitDx=0;exitDy=0;entryX=0.002;entryY=0.181;entryDx=0;entryDy=0;entryPerimeter=0;" parent="1" source="ovOquduBLZXhEfotEcZJ-12" edge="1">
          <mxGeometry relative="1" as="geometry">
            <mxPoint x="440" y="345" as="targetPoint" />
          </mxGeometry>
        </mxCell>
        <mxCell id="ovOquduBLZXhEfotEcZJ-12" value="MethodOpcUa3" style="rounded=1;whiteSpace=wrap;html=1;" parent="1" vertex="1">
          <mxGeometry x="210" y="330" width="180" height="30" as="geometry" />
        </mxCell>
        <mxCell id="ovOquduBLZXhEfotEcZJ-13" value="" style="endArrow=none;dashed=1;html=1;rounded=0;" parent="1" edge="1">
          <mxGeometry width="50" height="50" relative="1" as="geometry">
            <mxPoint x="299.66" y="440" as="sourcePoint" />
            <mxPoint x="299.66" y="360" as="targetPoint" />
          </mxGeometry>
        </mxCell>
        <mxCell id="ovOquduBLZXhEfotEcZJ-14" style="edgeStyle=orthogonalEdgeStyle;rounded=0;orthogonalLoop=1;jettySize=auto;html=1;exitX=1;exitY=0.5;exitDx=0;exitDy=0;entryX=0.002;entryY=0.181;entryDx=0;entryDy=0;entryPerimeter=0;" parent="1" source="ovOquduBLZXhEfotEcZJ-15" edge="1">
          <mxGeometry relative="1" as="geometry">
            <mxPoint x="440" y="475" as="targetPoint" />
          </mxGeometry>
        </mxCell>
        <mxCell id="ovOquduBLZXhEfotEcZJ-15" value="MethodOpcUa..." style="rounded=1;whiteSpace=wrap;html=1;" parent="1" vertex="1">
          <mxGeometry x="210" y="460" width="180" height="30" as="geometry" />
        </mxCell>
        <mxCell id="ovOquduBLZXhEfotEcZJ-16" value="Variables mises à disposition par les méthodes.&amp;nbsp;" style="text;html=1;align=center;verticalAlign=middle;whiteSpace=wrap;rounded=0;" parent="1" vertex="1">
          <mxGeometry x="460" y="210" width="160" height="280" as="geometry" />
        </mxCell>
        <mxCell id="ovOquduBLZXhEfotEcZJ-18" value="" style="endArrow=classic;html=1;rounded=0;entryX=0.992;entryY=0.332;entryDx=0;entryDy=0;entryPerimeter=0;" parent="1" edge="1">
          <mxGeometry width="50" height="50" relative="1" as="geometry">
            <mxPoint x="721.6" y="420.48" as="sourcePoint" />
            <mxPoint x="640.0000000000001" y="420" as="targetPoint" />
          </mxGeometry>
        </mxCell>
        <mxCell id="ovOquduBLZXhEfotEcZJ-24" value="Var3" style="edgeLabel;html=1;align=center;verticalAlign=middle;resizable=0;points=[];" parent="ovOquduBLZXhEfotEcZJ-18" vertex="1" connectable="0">
          <mxGeometry x="0.0398" y="2" relative="1" as="geometry">
            <mxPoint as="offset" />
          </mxGeometry>
        </mxCell>
        <mxCell id="ovOquduBLZXhEfotEcZJ-23" value="Variables utilisées dans le process.&amp;nbsp;" style="text;html=1;align=center;verticalAlign=middle;whiteSpace=wrap;rounded=0;" parent="1" vertex="1">
          <mxGeometry x="740" y="205" width="160" height="280" as="geometry" />
        </mxCell>
        <mxCell id="ZnCGJM9q_NyyhINOvmDc-1" value="&lt;font style=&quot;font-size: 16px;&quot;&gt;&lt;b&gt;Interfacage OpcUa dans le programme&lt;/b&gt;&lt;/font&gt;" style="text;html=1;align=center;verticalAlign=middle;whiteSpace=wrap;rounded=0;" vertex="1" parent="1">
          <mxGeometry x="450" y="70" width="410" height="30" as="geometry" />
        </mxCell>
      </root>
    </mxGraphModel>
  </diagram>
  <diagram id="NkyIWx4_HReazGIrEcEl" name="Echanges">
    <mxGraphModel dx="1434" dy="851" grid="1" gridSize="10" guides="1" tooltips="1" connect="1" arrows="1" fold="1" page="1" pageScale="1" pageWidth="1654" pageHeight="1169" math="0" shadow="0">
      <root>
        <mxCell id="0" />
        <mxCell id="1" parent="0" />
        <mxCell id="0HWD0VlDx9bdStxENrCN-12" style="edgeStyle=orthogonalEdgeStyle;rounded=0;orthogonalLoop=1;jettySize=auto;html=1;exitX=0.25;exitY=1;exitDx=0;exitDy=0;" edge="1" parent="1" source="0HWD0VlDx9bdStxENrCN-1" target="0HWD0VlDx9bdStxENrCN-9">
          <mxGeometry relative="1" as="geometry" />
        </mxCell>
        <mxCell id="0HWD0VlDx9bdStxENrCN-1" value="Unista" style="rounded=1;whiteSpace=wrap;html=1;" vertex="1" parent="1">
          <mxGeometry x="200" y="480" width="640" height="40" as="geometry" />
        </mxCell>
        <mxCell id="0HWD0VlDx9bdStxENrCN-13" style="edgeStyle=orthogonalEdgeStyle;rounded=0;orthogonalLoop=1;jettySize=auto;html=1;exitX=0.25;exitY=1;exitDx=0;exitDy=0;entryX=0.5;entryY=0;entryDx=0;entryDy=0;" edge="1" parent="1" source="0HWD0VlDx9bdStxENrCN-2" target="0HWD0VlDx9bdStxENrCN-8">
          <mxGeometry relative="1" as="geometry" />
        </mxCell>
        <mxCell id="0HWD0VlDx9bdStxENrCN-2" value="Agileo" style="rounded=1;whiteSpace=wrap;html=1;" vertex="1" parent="1">
          <mxGeometry x="200" y="80" width="640" height="40" as="geometry" />
        </mxCell>
        <mxCell id="0HWD0VlDx9bdStxENrCN-3" value="Ltu" style="rounded=1;whiteSpace=wrap;html=1;" vertex="1" parent="1">
          <mxGeometry x="200" y="720" width="640" height="40" as="geometry" />
        </mxCell>
        <mxCell id="0HWD0VlDx9bdStxENrCN-8" value="&lt;div&gt;Method&lt;/div&gt;&lt;ul&gt;&lt;li style=&quot;text-align: left;&quot;&gt;SetOrderParameter&lt;/li&gt;&lt;li style=&quot;text-align: left;&quot;&gt;StartProduction&lt;/li&gt;&lt;li style=&quot;text-align: left;&quot;&gt;ConfirmMachineProgram&lt;/li&gt;&lt;li style=&quot;text-align: left;&quot;&gt;ReloadMachineProgram&lt;/li&gt;&lt;li style=&quot;text-align: left;&quot;&gt;HoldProduction&lt;/li&gt;&lt;li style=&quot;text-align: left;&quot;&gt;StopProduction&lt;/li&gt;&lt;li style=&quot;text-align: left;&quot;&gt;InterruptWorkOrder&lt;/li&gt;&lt;li style=&quot;text-align: left;&quot;&gt;LifeBitMethod&lt;/li&gt;&lt;li style=&quot;text-align: left;&quot;&gt;ScrapPart&lt;/li&gt;&lt;li style=&quot;text-align: left;&quot;&gt;StartRefilling&lt;/li&gt;&lt;li style=&quot;text-align: left;&quot;&gt;StartMachineTest&lt;/li&gt;&lt;li style=&quot;text-align: left;&quot;&gt;StopMachineTest&lt;/li&gt;&lt;li style=&quot;text-align: left;&quot;&gt;ReleaseDepot&lt;/li&gt;&lt;li style=&quot;text-align: left;&quot;&gt;EmptyContainer&lt;/li&gt;&lt;/ul&gt;" style="rounded=1;whiteSpace=wrap;html=1;" vertex="1" parent="1">
          <mxGeometry x="200" y="200" width="280" height="280" as="geometry" />
        </mxCell>
        <mxCell id="0HWD0VlDx9bdStxENrCN-9" value="&lt;div&gt;Method&lt;/div&gt;&lt;ul&gt;&lt;li style=&quot;text-align: left;&quot;&gt;SendProgramToUse&lt;/li&gt;&lt;/ul&gt;" style="rounded=1;whiteSpace=wrap;html=1;" vertex="1" parent="1">
          <mxGeometry x="200" y="600" width="280" height="120" as="geometry" />
        </mxCell>
        <mxCell id="0HWD0VlDx9bdStxENrCN-15" style="edgeStyle=orthogonalEdgeStyle;rounded=0;orthogonalLoop=1;jettySize=auto;html=1;exitX=0.5;exitY=0;exitDx=0;exitDy=0;entryX=0.75;entryY=1;entryDx=0;entryDy=0;" edge="1" parent="1" source="0HWD0VlDx9bdStxENrCN-14" target="0HWD0VlDx9bdStxENrCN-2">
          <mxGeometry relative="1" as="geometry" />
        </mxCell>
        <mxCell id="0HWD0VlDx9bdStxENrCN-14" value="&lt;div&gt;Event&lt;/div&gt;&lt;ul&gt;&lt;li style=&quot;text-align: left;&quot;&gt;BlockingStepFinishedEvent&lt;/li&gt;&lt;li style=&quot;text-align: left;&quot;&gt;HapticThicknessMeasurementStepFinishedEvent&lt;/li&gt;&lt;li style=&quot;text-align: left;&quot;&gt;LathingA1StepFinishedEvent&lt;/li&gt;&lt;li style=&quot;text-align: left;&quot;&gt;LathingA2StepFinishedEvent&lt;/li&gt;&lt;li style=&quot;text-align: left;&quot;&gt;LathingB1StepFinishedEvent&lt;/li&gt;&lt;li style=&quot;text-align: left;&quot;&gt;LathingB2StepFinishedEvent&lt;/li&gt;&lt;li style=&quot;text-align: left;&quot;&gt;MillingAStepFinishedEvent&lt;/li&gt;&lt;li style=&quot;text-align: left;&quot;&gt;MillingBStepFinishedEvent&lt;/li&gt;&lt;li style=&quot;text-align: left;&quot;&gt;ReblockingStepFinishedEvent&lt;/li&gt;&lt;/ul&gt;" style="rounded=1;whiteSpace=wrap;html=1;" vertex="1" parent="1">
          <mxGeometry x="520" y="200" width="320" height="280" as="geometry" />
        </mxCell>
        <mxCell id="0HWD0VlDx9bdStxENrCN-17" style="edgeStyle=orthogonalEdgeStyle;rounded=0;orthogonalLoop=1;jettySize=auto;html=1;exitX=0.5;exitY=0;exitDx=0;exitDy=0;entryX=0.75;entryY=1;entryDx=0;entryDy=0;" edge="1" parent="1" source="0HWD0VlDx9bdStxENrCN-16" target="0HWD0VlDx9bdStxENrCN-1">
          <mxGeometry relative="1" as="geometry" />
        </mxCell>
        <mxCell id="0HWD0VlDx9bdStxENrCN-16" value="&lt;span style=&quot;background-color: transparent; color: light-dark(rgb(0, 0, 0), rgb(255, 255, 255));&quot;&gt;SendStatus&lt;/span&gt;&lt;ul&gt;&lt;li style=&quot;text-align: left;&quot;&gt;MachiningProgramID&lt;/li&gt;&lt;/ul&gt;" style="rounded=1;whiteSpace=wrap;html=1;" vertex="1" parent="1">
          <mxGeometry x="520" y="600" width="320" height="120" as="geometry" />
        </mxCell>
      </root>
    </mxGraphModel>
  </diagram>
  <diagram id="YD6w_GwWEMqqqDiA7UNt" name="Reseau">
    <mxGraphModel dx="1595" dy="1151" grid="1" gridSize="10" guides="1" tooltips="1" connect="1" arrows="1" fold="1" page="0" pageScale="1" pageWidth="1654" pageHeight="1169" math="0" shadow="0">
      <root>
        <mxCell id="0" />
        <mxCell id="1" parent="0" />
        <mxCell id="co2a4Y4tU_Pg6uYOtprd-22" value="&lt;font&gt;MACHINE UNISTA&lt;/font&gt;" style="rounded=1;whiteSpace=wrap;html=1;fillColor=#f8cecc;strokeColor=#b85450;verticalAlign=top;" vertex="1" parent="1">
          <mxGeometry x="111" y="110" width="219" height="260" as="geometry" />
        </mxCell>
        <mxCell id="co2a4Y4tU_Pg6uYOtprd-1" value="LTU&lt;div&gt;&lt;br&gt;&lt;/div&gt;&lt;div&gt;192.168.1.xxx&lt;/div&gt;" style="rounded=1;whiteSpace=wrap;html=1;" vertex="1" parent="1">
          <mxGeometry x="-240" y="-20" width="120" height="59" as="geometry" />
        </mxCell>
        <mxCell id="co2a4Y4tU_Pg6uYOtprd-2" value="LTU&lt;div&gt;&lt;br&gt;&lt;/div&gt;&lt;div&gt;192.168.1.xxx&lt;/div&gt;" style="rounded=1;whiteSpace=wrap;html=1;" vertex="1" parent="1">
          <mxGeometry x="-80" y="-19" width="120" height="58" as="geometry" />
        </mxCell>
        <mxCell id="co2a4Y4tU_Pg6uYOtprd-3" value="LTU&lt;div&gt;&lt;br&gt;&lt;/div&gt;&lt;div&gt;192.168.1.xxx&lt;/div&gt;" style="rounded=1;whiteSpace=wrap;html=1;" vertex="1" parent="1">
          <mxGeometry x="80" y="-19" width="120" height="59" as="geometry" />
        </mxCell>
        <mxCell id="co2a4Y4tU_Pg6uYOtprd-4" value="Unista&lt;div&gt;&lt;br&gt;&lt;/div&gt;&lt;div&gt;192.168.1.xxx&lt;/div&gt;" style="rounded=1;whiteSpace=wrap;html=1;" vertex="1" parent="1">
          <mxGeometry x="160" y="240" width="121" height="110" as="geometry" />
        </mxCell>
        <mxCell id="co2a4Y4tU_Pg6uYOtprd-9" value="SWITCH&lt;div&gt;-096A3&lt;/div&gt;" style="rounded=0;whiteSpace=wrap;html=1;" vertex="1" parent="1">
          <mxGeometry x="161" y="160" width="120" height="40" as="geometry" />
        </mxCell>
        <mxCell id="co2a4Y4tU_Pg6uYOtprd-11" value="" style="endArrow=none;html=1;rounded=0;fontSize=12;startSize=8;endSize=8;curved=1;exitX=0.5;exitY=0;exitDx=0;exitDy=0;entryX=0.5;entryY=1;entryDx=0;entryDy=0;" edge="1" parent="1" source="co2a4Y4tU_Pg6uYOtprd-4" target="co2a4Y4tU_Pg6uYOtprd-9">
          <mxGeometry width="50" height="50" relative="1" as="geometry">
            <mxPoint x="421" y="230" as="sourcePoint" />
            <mxPoint x="471" y="180" as="targetPoint" />
          </mxGeometry>
        </mxCell>
        <mxCell id="co2a4Y4tU_Pg6uYOtprd-12" value="" style="endArrow=none;html=1;rounded=0;fontSize=12;startSize=8;endSize=8;curved=1;exitX=0.25;exitY=0;exitDx=0;exitDy=0;entryX=0.5;entryY=1;entryDx=0;entryDy=0;" edge="1" parent="1" source="co2a4Y4tU_Pg6uYOtprd-9" target="co2a4Y4tU_Pg6uYOtprd-3">
          <mxGeometry width="50" height="50" relative="1" as="geometry">
            <mxPoint x="180" y="230" as="sourcePoint" />
            <mxPoint x="230" y="180" as="targetPoint" />
            <Array as="points">
              <mxPoint x="100" y="80" />
            </Array>
          </mxGeometry>
        </mxCell>
        <mxCell id="co2a4Y4tU_Pg6uYOtprd-13" value="" style="endArrow=none;html=1;rounded=0;fontSize=12;startSize=8;endSize=8;curved=1;entryX=0.5;entryY=1;entryDx=0;entryDy=0;exitX=0.25;exitY=0;exitDx=0;exitDy=0;" edge="1" parent="1" source="co2a4Y4tU_Pg6uYOtprd-9" target="co2a4Y4tU_Pg6uYOtprd-2">
          <mxGeometry width="50" height="50" relative="1" as="geometry">
            <mxPoint x="-60" y="110" as="sourcePoint" />
            <mxPoint x="-10" y="60" as="targetPoint" />
            <Array as="points">
              <mxPoint x="70" y="110" />
            </Array>
          </mxGeometry>
        </mxCell>
        <mxCell id="co2a4Y4tU_Pg6uYOtprd-14" value="" style="endArrow=none;html=1;rounded=0;fontSize=12;startSize=8;endSize=8;curved=1;entryX=0.5;entryY=1;entryDx=0;entryDy=0;exitX=0.25;exitY=0;exitDx=0;exitDy=0;" edge="1" parent="1" source="co2a4Y4tU_Pg6uYOtprd-9" target="co2a4Y4tU_Pg6uYOtprd-1">
          <mxGeometry width="50" height="50" relative="1" as="geometry">
            <mxPoint x="-270" y="150" as="sourcePoint" />
            <mxPoint x="-220" y="100" as="targetPoint" />
            <Array as="points">
              <mxPoint x="-20" y="120" />
            </Array>
          </mxGeometry>
        </mxCell>
        <mxCell id="co2a4Y4tU_Pg6uYOtprd-16" value="LTU&lt;div&gt;&lt;br&gt;&lt;/div&gt;&lt;div&gt;192.168.1.xxx&lt;/div&gt;" style="rounded=1;whiteSpace=wrap;html=1;" vertex="1" parent="1">
          <mxGeometry x="240" y="-21" width="120" height="59" as="geometry" />
        </mxCell>
        <mxCell id="co2a4Y4tU_Pg6uYOtprd-17" value="LTU&lt;div&gt;&lt;br&gt;&lt;/div&gt;&lt;div&gt;192.168.1.xxx&lt;/div&gt;" style="rounded=1;whiteSpace=wrap;html=1;" vertex="1" parent="1">
          <mxGeometry x="400" y="-20" width="120" height="58" as="geometry" />
        </mxCell>
        <mxCell id="co2a4Y4tU_Pg6uYOtprd-18" value="LTU&lt;div&gt;&lt;br&gt;&lt;/div&gt;&lt;div&gt;192.168.1.xxx&lt;/div&gt;" style="rounded=1;whiteSpace=wrap;html=1;" vertex="1" parent="1">
          <mxGeometry x="560" y="-20" width="120" height="59" as="geometry" />
        </mxCell>
        <mxCell id="co2a4Y4tU_Pg6uYOtprd-19" value="" style="endArrow=none;html=1;rounded=0;fontSize=12;startSize=8;endSize=8;curved=1;exitX=0.75;exitY=0;exitDx=0;exitDy=0;entryX=0.5;entryY=1;entryDx=0;entryDy=0;" edge="1" parent="1" source="co2a4Y4tU_Pg6uYOtprd-9" target="co2a4Y4tU_Pg6uYOtprd-16">
          <mxGeometry width="50" height="50" relative="1" as="geometry">
            <mxPoint x="250" y="120" as="sourcePoint" />
            <mxPoint x="300" y="70" as="targetPoint" />
            <Array as="points">
              <mxPoint x="310" y="90" />
            </Array>
          </mxGeometry>
        </mxCell>
        <mxCell id="co2a4Y4tU_Pg6uYOtprd-20" value="" style="endArrow=none;html=1;rounded=0;fontSize=12;startSize=8;endSize=8;curved=1;entryX=0.5;entryY=1;entryDx=0;entryDy=0;exitX=0.75;exitY=0;exitDx=0;exitDy=0;" edge="1" parent="1" source="co2a4Y4tU_Pg6uYOtprd-9" target="co2a4Y4tU_Pg6uYOtprd-17">
          <mxGeometry width="50" height="50" relative="1" as="geometry">
            <mxPoint x="370" y="160" as="sourcePoint" />
            <mxPoint x="420" y="110" as="targetPoint" />
            <Array as="points">
              <mxPoint x="380" y="110" />
            </Array>
          </mxGeometry>
        </mxCell>
        <mxCell id="co2a4Y4tU_Pg6uYOtprd-21" value="" style="endArrow=none;html=1;rounded=0;fontSize=12;startSize=8;endSize=8;curved=1;exitX=0.75;exitY=0;exitDx=0;exitDy=0;entryX=0.5;entryY=1;entryDx=0;entryDy=0;" edge="1" parent="1" source="co2a4Y4tU_Pg6uYOtprd-9" target="co2a4Y4tU_Pg6uYOtprd-18">
          <mxGeometry width="50" height="50" relative="1" as="geometry">
            <mxPoint x="470" y="180" as="sourcePoint" />
            <mxPoint x="520" y="130" as="targetPoint" />
            <Array as="points">
              <mxPoint x="450" y="120" />
            </Array>
          </mxGeometry>
        </mxCell>
      </root>
    </mxGraphModel>
  </diagram>
</mxfile>
